<svg width="1440" height="495" viewBox="0 0 1440 495" fill="none" xmlns="http://www.w3.org/2000/svg">
<line x1="643" y1="192.75" x2="-55.9999" y2="192.75" stroke="#F7F7F7" stroke-width="1.5"/>
<line x1="643" y1="221.75" x2="-55.9999" y2="221.75" stroke="#F7F7F7" stroke-width="1.5"/>
<line x1="643" y1="250.75" x2="-55.9999" y2="250.75" stroke="#F7F7F7" stroke-width="1.5"/>
<line x1="643" y1="279.75" x2="-55.9999" y2="279.75" stroke="#F7F7F7" stroke-width="1.5"/>
<line x1="643" y1="308.75" x2="-55.9999" y2="308.75" stroke="#F7F7F7" stroke-width="1.5"/>
<line x1="643" y1="337.75" x2="-55.9999" y2="337.75" stroke="#F7F7F7" stroke-width="1.5"/>
<line x1="643" y1="366.75" x2="-55.9999" y2="366.75" stroke="#F7F7F7" stroke-width="1.5"/>
<line x1="643" y1="395.75" x2="-55.9999" y2="395.75" stroke="#F7F7F7" stroke-width="1.5"/>
<line x1="643" y1="424.75" x2="-55.9999" y2="424.75" stroke="#F7F7F7" stroke-width="1.5"/>
<line x1="643" y1="453.75" x2="-55.9999" y2="453.75" stroke="#F7F7F7" stroke-width="1.5"/>
<line x1="643" y1="482.75" x2="-55.9999" y2="482.75" stroke="#F7F7F7" stroke-width="1.5"/>
<line x1="5.75006" y1="173" x2="5.75004" y2="872" stroke="#F7F7F7" stroke-width="1.5"/>
<line x1="34.75" y1="173" x2="34.75" y2="872" stroke="#F7F7F7" stroke-width="1.5"/>
<line x1="63.75" y1="173" x2="63.75" y2="872" stroke="#F7F7F7" stroke-width="1.5"/>
<line x1="92.75" y1="173" x2="92.75" y2="872" stroke="#F7F7F7" stroke-width="1.5"/>
<line x1="121.75" y1="173" x2="121.75" y2="872" stroke="#F7F7F7" stroke-width="1.5"/>
<line x1="150.75" y1="173" x2="150.75" y2="872" stroke="#F7F7F7" stroke-width="1.5"/>
<line x1="179.75" y1="173" x2="179.75" y2="872" stroke="#F7F7F7" stroke-width="1.5"/>
<line x1="208.75" y1="173" x2="208.75" y2="872" stroke="#F7F7F7" stroke-width="1.5"/>
<line x1="237.75" y1="173" x2="237.75" y2="872" stroke="#F7F7F7" stroke-width="1.5"/>
<line x1="266.75" y1="173" x2="266.75" y2="872" stroke="#F7F7F7" stroke-width="1.5"/>
<line x1="295.75" y1="173" x2="295.75" y2="872" stroke="#F7F7F7" stroke-width="1.5"/>
<line x1="324.75" y1="173" x2="324.75" y2="872" stroke="#F7F7F7" stroke-width="1.5"/>
<line x1="353.75" y1="173" x2="353.75" y2="872" stroke="#F7F7F7" stroke-width="1.5"/>
<line x1="382.75" y1="173" x2="382.75" y2="872" stroke="#F7F7F7" stroke-width="1.5"/>
<line x1="411.75" y1="173" x2="411.75" y2="872" stroke="#F7F7F7" stroke-width="1.5"/>
<line x1="440.75" y1="173" x2="440.75" y2="872" stroke="#F7F7F7" stroke-width="1.5"/>
<line x1="469.75" y1="173" x2="469.75" y2="872" stroke="#F7F7F7" stroke-width="1.5"/>
<line x1="498.75" y1="173" x2="498.75" y2="872" stroke="#F7F7F7" stroke-width="1.5"/>
<line x1="527.75" y1="173" x2="527.75" y2="872" stroke="#F7F7F7" stroke-width="1.5"/>
<line x1="556.75" y1="173" x2="556.75" y2="872" stroke="#F7F7F7" stroke-width="1.5"/>
<line x1="585.75" y1="173" x2="585.75" y2="872" stroke="#F7F7F7" stroke-width="1.5"/>
<line x1="614.75" y1="173" x2="614.75" y2="872" stroke="#F7F7F7" stroke-width="1.5"/>
<g filter="url(#filter0_f_1273_1456)">
<path d="M260 -228.5L468 64L672 326.5L589 393L102 -192L260 -228.5Z" fill="#BCE9E6"/>
</g>
<mask id="mask0_1273_1456" style="mask-type:alpha" maskUnits="userSpaceOnUse" x="51" y="-16" width="853" height="655">
<path d="M904 639C904 639 631.502 440.236 498 274C421.769 179.078 368.292 46.7842 326 14.0004C241.121 -51.7955 51 14.0004 51 14.0004V639H904Z" fill="#D9D9D9"/>
</mask>
<g mask="url(#mask0_1273_1456)">
<g filter="url(#filter1_f_1273_1456)">
<path d="M431.5 82L639.5 374.5L843.5 637L760.5 703.5L273.5 118.5L431.5 82Z" fill="#F4DFFB"/>
</g>
</g>
<g filter="url(#filter2_f_1273_1456)">
<circle cx="141.5" cy="172.5" r="345.5" fill="#CDCCE6"/>
</g>
<g filter="url(#filter3_f_1273_1456)">
<circle cx="1328.5" cy="345.5" r="345.5" fill="#080545"/>
</g>
<defs>
<filter id="filter0_f_1273_1456" x="-98" y="-428.5" width="970" height="1021.5" filterUnits="userSpaceOnUse" color-interpolation-filters="sRGB">
<feFlood flood-opacity="0" result="BackgroundImageFix"/>
<feBlend mode="normal" in="SourceGraphic" in2="BackgroundImageFix" result="shape"/>
<feGaussianBlur stdDeviation="100" result="effect1_foregroundBlur_1273_1456"/>
</filter>
<filter id="filter1_f_1273_1456" x="73.5" y="-118" width="970" height="1021.5" filterUnits="userSpaceOnUse" color-interpolation-filters="sRGB">
<feFlood flood-opacity="0" result="BackgroundImageFix"/>
<feBlend mode="normal" in="SourceGraphic" in2="BackgroundImageFix" result="shape"/>
<feGaussianBlur stdDeviation="100" result="effect1_foregroundBlur_1273_1456"/>
</filter>
<filter id="filter2_f_1273_1456" x="-931" y="-900" width="2145" height="2145" filterUnits="userSpaceOnUse" color-interpolation-filters="sRGB">
<feFlood flood-opacity="0" result="BackgroundImageFix"/>
<feBlend mode="normal" in="SourceGraphic" in2="BackgroundImageFix" result="shape"/>
<feGaussianBlur stdDeviation="363.5" result="effect1_foregroundBlur_1273_1456"/>
</filter>
<filter id="filter3_f_1273_1456" x="256" y="-727" width="2145" height="2145" filterUnits="userSpaceOnUse" color-interpolation-filters="sRGB">
<feFlood flood-opacity="0" result="BackgroundImageFix"/>
<feBlend mode="normal" in="SourceGraphic" in2="BackgroundImageFix" result="shape"/>
<feGaussianBlur stdDeviation="363.5" result="effect1_foregroundBlur_1273_1456"/>
</filter>
</defs>
</svg>
