<svg width="613" height="138" viewBox="0 0 613 138" fill="none" xmlns="http://www.w3.org/2000/svg">
<path d="M568.413 6.98334C565.822 10.0315 558.07 10.6613 558.07 10.6613C558.07 10.6613 560.431 4.79397 565.516 1.89784C566.655 1.24964 567.902 1.71984 568.774 2.69738C569.892 3.95092 569.5 5.70334 568.413 6.98334Z" fill="#005689"/>
<path d="M533.417 136.588C529.452 136.06 524.727 129.881 524.727 129.881C524.727 129.881 530.938 128.691 536.126 131.401C537.287 132.007 537.566 133.31 537.216 134.573C536.767 136.191 535.082 136.81 533.417 136.588Z" fill="#005689"/>
<path d="M609.434 27.2985C606.007 29.3614 598.458 27.4856 598.458 27.4856C598.458 27.4856 602.567 22.6778 608.311 21.5549C609.597 21.3036 610.629 22.1471 611.143 23.3516C611.803 24.8963 610.873 26.4323 609.434 27.2985Z" fill="#005689"/>
<path d="M93.4662 1.17986C97.2373 2.51368 100.588 9.53288 100.588 9.53288C100.588 9.53288 94.265 9.41774 89.7467 5.69817C88.7354 4.86567 88.7302 3.53268 89.3329 2.36969C90.1057 0.878324 91.8826 0.619758 93.4662 1.17986Z" fill="#005689"/>
<path d="M35.5258 3.80023C39.5116 3.4633 45.4553 8.48047 45.4553 8.48047C45.4553 8.48047 39.6451 10.9788 33.9962 9.44915C32.7318 9.10679 32.1784 7.89413 32.2488 6.58616C32.3391 4.90889 33.852 3.94172 35.5258 3.80023Z" fill="#005689"/>
<path d="M3.37834 94.8237C7.19758 93.6348 14.0838 97.2514 14.0838 97.2514C14.0838 97.2514 8.94942 100.944 3.1035 100.67C1.79508 100.608 0.993016 99.5434 0.779596 98.251C0.505915 96.5938 1.77454 95.323 3.37834 94.8237Z" fill="#005689"/>
<path d="M38.8264 127.715C42.0217 125.309 49.7238 126.393 49.7238 126.393C49.7238 126.393 46.1342 131.601 40.5376 133.312C39.2849 133.695 38.171 132.963 37.5346 131.818C36.7185 130.35 37.4847 128.726 38.8264 127.715Z" fill="#005689"/>
</svg>
