<svg width="819" height="579" viewBox="0 0 819 579" fill="none" xmlns="http://www.w3.org/2000/svg">
<g opacity="0.25">
<rect x="630.201" y="3.75722" width="25" height="25" rx="5" transform="rotate(17.3237 630.201 3.75722)" stroke="#668699" stroke-width="6"/>
<circle cx="385.101" cy="313.92" r="33.9201" fill="#F6C667"/>
<path d="M672 299C672 308.389 664.389 316 655 316C645.611 316 638 308.389 638 299C638 289.611 645.611 282 655 282C664.389 282 672 289.611 672 299ZM644.443 299C644.443 304.83 649.17 309.557 655 309.557C660.83 309.557 665.557 304.83 665.557 299C665.557 293.17 660.83 288.443 655 288.443C649.17 288.443 644.443 293.17 644.443 299Z" fill="#BCDEF5"/>
<rect x="398.756" y="62" width="49.1394" height="49.1394" rx="8" transform="rotate(7.17728 398.756 62)" fill="#BCDEF5"/>
<line x1="385.294" y1="142.216" x2="361.508" y2="166.001" stroke="#EFF7FB" stroke-width="12" stroke-linecap="round"/>
<line x1="361.858" y1="116.314" x2="287.485" y2="190.687" stroke="#EFF7FB" stroke-width="12" stroke-linecap="round"/>
<rect x="246.819" y="428.164" width="151.881" height="151.881" rx="8" transform="rotate(7.17728 246.819 428.164)" fill="#BCDEF5"/>
<line x1="335.294" y1="521.216" x2="311.508" y2="545.001" stroke="#EFF7FB" stroke-width="12" stroke-linecap="round"/>
<line x1="311.858" y1="495.314" x2="237.485" y2="569.687" stroke="#EFF7FB" stroke-width="12" stroke-linecap="round"/>
<ellipse cx="705.5" cy="161" rx="113.5" ry="113" fill="#F6C667"/>
<path d="M733.95 108.485L719 123.436" stroke="#EFF7FB" stroke-width="12" stroke-linecap="round"/>
<line x1="757.716" y1="128.221" x2="710.695" y2="175.241" stroke="#EFF7FB" stroke-width="12" stroke-linecap="round"/>
<circle cx="82.3906" cy="355.92" r="33.9201" fill="#F6C667"/>
<path d="M31.7402 382.917L16.7898 397.867" stroke="#EFF7FB" stroke-width="12" stroke-linecap="round"/>
<line x1="55.5056" y1="402.652" x2="8.48525" y2="449.673" stroke="#EFF7FB" stroke-width="12" stroke-linecap="round"/>
</g>
</svg>
