<svg width="1440" height="1579" viewBox="0 0 1440 1579" fill="none" xmlns="http://www.w3.org/2000/svg">
<path d="M349.636 104.066L0 0V1550.48L358.127 1579L835.13 1463.43L1250.7 1565.99L1440 1496.95V239.652L1285.66 129.082L1052.9 204.63L698.273 38.5244L349.636 104.066Z" fill="#E6F1FA"/>
<path d="M1090.36 1308.46L1440 1412.52V268.524L1081.87 240.006L604.87 355.579L189.303 253.014L0 322.058V1172.87L154.339 1283.44L387.097 1207.89L741.727 1374L1090.36 1308.46Z" fill="#BCDEF5"/>
<path d="M349.636 504.066L0 400V1159.48L358.127 1188L835.13 1072.43L1250.7 1174.99L1440 1105.95V639.652L1285.66 529.082L1052.9 604.63L698.273 438.524L349.636 504.066Z" fill="#E6F1FA"/>
</svg>
